<svg id="Layer_1" data-name="Layer 1" xmlns="http://www.w3.org/2000/svg" viewBox="0 0 274.83 306.53"><defs><style>.cls-1{fill:#fff;}</style></defs><path class="cls-1" d="M353.46,290a22.46,22.46,0,0,0-16.76,7.43l-59.13-34.15a17.45,17.45,0,0,0,1.27-6.95,22.45,22.45,0,1,0-44.9,0,17.44,17.44,0,0,0,1.26,6.95l-59.13,34.15a22.16,22.16,0,0,0-12.18-6.95v-68.3a20.18,20.18,0,0,0,6.65-2.53,21.91,21.91,0,0,0,10-26.41l59.13-34.15a22.3,22.3,0,0,0,33.52,0l59.13,34.15a17.8,17.8,0,0,0-1.27,7.12,22.38,22.38,0,1,0,22.45-22.45,21.56,21.56,0,0,0-16.76,7.58l-59.13-34.15a21,21,0,0,0,1.27-7.11,22.45,22.45,0,0,0-44.9,0,21,21,0,0,0,1.26,7.11l-59.13,34.15a22.38,22.38,0,1,0-21.19,36.69v68.3a20.61,20.61,0,0,0-6.8,2.53,22.39,22.39,0,1,0,22.46,38.73,19.82,19.82,0,0,0,5.53-4.58l59.13,34.15a21.87,21.87,0,0,0,10,26.4,22.49,22.49,0,0,0,30.67-8.22,21.7,21.7,0,0,0,1.74-18.18l59.13-34.15a21.57,21.57,0,0,0,16.76,7.59,22.38,22.38,0,0,0,0-44.75Zm-80.31,63.56a19.87,19.87,0,0,0-5.54-4.58,22.32,22.32,0,0,0-28,4.58L180.5,319.44a20.5,20.5,0,0,0,0-14.07l59.13-34.31a22,22,0,0,0,33.52,0l59.13,34.31a17,17,0,0,0-1.27,7,17.75,17.75,0,0,0,1.27,7.11Z" transform="translate(-118.91 -103.09)"/><path class="cls-1" d="M256.33,409.62A34.83,34.83,0,0,1,238.91,405L136.33,345.75a35,35,0,0,1-17.42-30.18V197.13A34.94,34.94,0,0,1,136.33,167l102.58-59.22a34.91,34.91,0,0,1,34.84,0L376.32,167a34.91,34.91,0,0,1,17.42,30.17V315.57a34.94,34.94,0,0,1-17.42,30.18L273.75,405A34.88,34.88,0,0,1,256.33,409.62Zm0-301.67a29.94,29.94,0,0,0-15,4L138.76,171.17a30.08,30.08,0,0,0-15,26V315.57a30.08,30.08,0,0,0,15,26l102.58,59.22a30.05,30.05,0,0,0,30,0l102.57-59.22a30.06,30.06,0,0,0,15-26V197.13a30.06,30.06,0,0,0-15-26L271.32,112A30,30,0,0,0,256.33,108Z" transform="translate(-118.91 -103.09)"/></svg>